/* XPM */
static char *door1647596879[] = {
/* columns rows colors chars-per-pixel */
"30 30 10 1 ",
"  c None",
". c #111111",
"X c #222222",
"o c #483B3A",
"O c #62232F",
"+ c #775C55",
"@ c #8F4029",
"# c #AA8D7A",
"$ c #72D6CE",
"% c #FDF7ED",
/* pixels */
"   XX+++ooXoooXoooXoooX++XX   ",
"  X++XooXXXXXXXXXXXXXX+oo++X  ",
" XoooXXX..............XXXoooX ",
"XXooX...@.@@@.O@@.@@@.@..XXXXX",
"X+XX..@@@.@@@.O@@.@@O.@@@.X++X",
"oo+X@.@O@.@@@.O@O.@@O.@@@.XXoo",
"ooX.@.@O@.@@@.@@@.@@O.@O@..Xoo",
"ooX@@.@O@.@O@.@@O.@OO.@O@.@XXX",
"XX.@@.@OO.@@@.@@O.@OO.OO@.@OX+",
"+X@@@.@OO.@O@.@@O.@OO.O@O.O@Xo",
"XXX@@.@@O.@O@.@@O.@@O.O@O.O@Xo",
"X$XXXXXOO.@O@.O@O.@O@.XXX.@OXo",
"X$%$%$X@O.@OO.O@@.@@XXX$XXX@XX",
"X$XXXXX@O.@OO.O@O.@@X$$$$$XOX+",
"XXX....@O.@OO.O@@.@OX$XXX$XOXo",
"oX.@O.@@O.@OO.O@@.OOX%XXX%XOXo",
"XX@@O.@@O.@@O.@@@.OO.X%%%X.OXX",
"+XO@O.@O@.@@O.@@@.OO@.XXX.OOX+",
"oXO@O.@@@.@@@.@O@.OO@.....OOXo",
"XXX@O.@O@.@@@.@O@.OO@.@@@.OOXo",
"X$XXXXXO@.@@@.@O@.O@@.@@@.OOXX",
"X$%$%$XO@.@@@.@O@.O@@.@@@.O@X+",
"X$XXXXXO@.O@@.@O@.O@@.@@@.O@Xo",
"XXX....O@.O@O.@O@.O@@.@@@.O@Xo",
"oX@@@.@O@.O@O.@@@.@@@.O@O.OOXX",
"XX..........................X+",
"+XXXXXXXXXXXXXXXXXXXXXXX.XXXXo",
"o+X#####.####.####.####.####Xo",
"oo+XooooXooooXooooXoooXooooXoo",
"XXXXXXXXXXXXXXXXXXXXXXXXXXXXXX"
};
