/* XPM */
static char *floor1647596879[] = {
/* columns rows colors chars-per-pixel */
"30 30 4 1 ",
"  c #222222",
". c #483B3A",
"X c #775C55",
"o c white",
/* pixels */
"   .    ... .      .    ... . ",
" ..............X .............",
"...............X..............",
"...............X..............",
" ..............X ...X.........",
"...............X..XX  X.......",
" ............... .  ..  X.....",
" ..............X  ...... .....",
" ............... ........ XX..",
"...............X........ X  XX",
"...............X.......X ...  ",
" ............... .....X ......",
" ............... ..... .......",
" ..............X ....X .......",
" ..............X ....  .......",
"XXX..X.XXXX.XXXXXXX.XX.XXXX.XX",
"   .    ... .      .    ... . ",
" ..............X ... X........",
"...............X...X. ........",
"...............XX.. ..........",
" ..............X .............",
".XX............X..............",
"   XX.....X..... .............",
"     XX..X ....X .............",
"       X  ...... .............",
"  ...   ........ .............",
"  ....  X......X .............",
"  X..X . ....... .............",
"   XX  ......... .............",
"      .........X ..X ........."
};
