/* XPM */
static char *monster1647596879[] = {
/* columns rows colors chars-per-pixel */
"30 30 5 1 ",
"  c None",
". c #222222",
"X c #DA4E38",
"o c #9F294E",
"O c #FDF7ED",
/* pixels */
"             . .    .         ",
"            .. . . .          ",
"       ...  ........          ",
"        .....XXooXXo.  ..     ",
"       ......XXOOXXO....      ",
"    .....o.o.XXOOXXO.o..      ",
"     ..o.XXo.XX..XX..Xo. .    ",
"      .oXXXXo.......oXX...    ",
"     ...ooXXXoooooooXXX..     ",
"     ..ooXXXXXXXXXXXXXX.      ",
"    ....o.X.X.X.X.X.X...      ",
"      .......O.O.O.O.O..      ",
"        .......O...O...       ",
"         .............        ",
"         .............        ",
"         .............        ",
"     .. ...............  ..   ",
"      ........O.....O.....    ",
"     .......O.O.O.O.O.O..     ",
"     ....o.o.X.X.X.X.o..      ",
"      .o.XXXXXXXXXXXXXo.      ",
"      .ooooXXXXXXXXXXXX.      ",
"      ..ooXXXXoXXXXXXXX..     ",
"     ..ooooooooooXXooXX...    ",
"    ...oooooooooooooooo. .    ",
"    .  .oooo......oooo.       ",
"        .oo.      .oo.        ",
"        .o.       .o.         ",
"        ...       ...         ",
"                              "
};
