/* XPM */
static char *dungeontileset_extended1647628110[] = {
/* columns rows colors chars-per-pixel */
"30 30 11 1 ",
"  c None",
". c #111111",
"X c #222222",
"o c #483B3A",
"O c #62232F",
"+ c #775C55",
"@ c #8F4029",
"# c #AA8D7A",
"$ c #72D6CE",
"% c #D3BFA9",
"& c #FDF7ED",
/* pixels */
"                              ",
"X##X%%%XXXXXXXXXXXXXX%%X###X  ",
"##%%XXX++X+++X+++X+++XXX%%##X ",
"#%XX+++ooXoooXoooXoooX++XX%#XX",
"%X++XooXXXXXXXXXXXXXX+oo++XX##",
"XoooXXX              XXXoooX%#",
"XooX.                   XXXXX%",
"+XXO.                    X++XX",
"o+X@.                    XXooX",
"oX.@.                     XooX",
"oX@@.                     XXXX",
"X.@O.                      X++",
"X@@O.                      Xoo",
"XX@O.                      Xoo",
"$XXO.                      Xoo",
"$&XO.                      XXX",
"$XX@.                      X++",
"XX.@.                      Xoo",
"X.@@.                      Xoo",
"X@@@.                      XXX",
"XO@O.                      X++",
"XO@O.                      Xoo",
"XX@O.                      Xoo",
"$XXO.                      XXX",
"$&XO.                      X++",
"$XXO.                      Xoo",
"XX@O.                      Xoo",
"X@@@.                      XXX",
"X@O@.                      X++",
"XXXXXXXXXXXXXXXXXXXXXXXXXXXXoo"
};
