/* XPM */
static char *player1647596880[] = {
/* columns rows colors chars-per-pixel */
"30 30 8 1 ",
"  c None",
". c #222222",
"X c gray20",
"o c #483B3A",
"O c #775C55",
"+ c #4BA747",
"@ c #97DA3F",
"# c #AA8D7A",
/* pixels */
"            .......           ",
"           .+++.@++.          ",
"          .+@@@@.@@@.         ",
"           .+++@+@@.          ",
"          ............        ",
"          .O#OOOOOOOO.        ",
"          .O##...##...        ",
"         ..O##...##....       ",
"        .O.O##OOO##OOO.       ",
"       .OO.O##########.       ",
"      .OO#.OOX#X#X#X#X.       ",
"      .O##..OO########.       ",
"     .O###O.OOOOOOOOO.        ",
"     .OO###...........        ",
"     .OO##OOO######OOO.       ",
"     .O###############.       ",
"     .OO########X#####.       ",
"     .OOO#############.       ",
"     ..................       ",
"     .XXXXXXXXXXXXXXXX.       ",
"     ..................       ",
"     .XXXoXooooooooooo.       ",
"     .XXoooooooooooooo.       ",
"     .XXXXoXoooooooooo.       ",
"     .XXXooooooooooooo.       ",
"     ..XXX........XXX..       ",
"      .....      .....        ",
"                              ",
"                              ",
"                              "
};
