/* XPM */
static char *wall1647596879[] = {
/* columns rows colors chars-per-pixel */
"30 30 6 1 ",
"  c #222222",
". c #483B3A",
"X c #314152",
"o c #775C55",
"O c #417089",
"+ c white",
/* pixels */
" ...... ... ...... ........ ..",
" .. ... ..  .. ...       .. ..",
"                    XXX       ",
"oo        oooooo   XOOOX  oooo",
"..        ......  XO   OX ....",
"..        . ....  O     O .. .",
"                  O     O     ",
"ooooo oooooo  ooo O     O o oo",
"..... ...... ....  O   O  . ..",
". ... ...... .....  OOO  .. ..",
"                              ",
" ooooooo ooooo ooooooo ooooooo",
" ....... ..... ....... .......",
" ..... . . ... . ..... ..... .",
"                              ",
" oooooo ooo oooo oooooo ooo oo",
" ...... ... .... ...... ... ..",
" .. ... ..  .... .. ... ..  ..",
"                              ",
"oo oooooo ooooo oo oooooo oooo",
".. .....  ........ ...... ....",
".. .. .     ...... ...... . ..",
"                              ",
"oooo          ooooooo oooooo o",
".....        ........ ...... .",
". ..          ..           . .",
"                XXXXXXXXXXX   ",
" ooooooo ooooo O O O O O O O o",
" ....... ..... O O O O O O O .",
" ..... . . ... X X X X X X X ."
};
